HIERARCHY
ROOT Hips
{
	OFFSET 0.00000 0.00000 0.00000
	CHANNELS 6 Xposition Yposition Zposition Zrotation Yrotation Xrotation 
	JOINT LHipJoint
	{
		OFFSET 0 0 0
		CHANNELS 3 Zrotation Yrotation Xrotation
		JOINT LeftUpLeg
		{
			OFFSET 1.62329 -1.80800 0.67318
			CHANNELS 3 Zrotation Yrotation Xrotation
			JOINT LeftLeg
			{
				OFFSET 2.57139 -7.06484 0.00000
				CHANNELS 3 Zrotation Yrotation Xrotation
				JOINT LeftFoot
				{
					OFFSET 2.52017 -6.92413 0.00000
					CHANNELS 3 Zrotation Yrotation Xrotation
					JOINT LeftToeBase
					{
						OFFSET 0.23295 -0.64001 2.10214
						CHANNELS 3 Zrotation Yrotation Xrotation
						End Site
						{
							OFFSET 0.00000 -0.00000 1.10139
						}
					}
				}
			}
		}
	}
	JOINT RHipJoint
	{
		OFFSET 0 0 0
		CHANNELS 3 Zrotation Yrotation Xrotation
		JOINT RightUpLeg
		{
			OFFSET -1.48061 -1.80800 0.67318
			CHANNELS 3 Zrotation Yrotation Xrotation
			JOINT RightLeg
			{
				OFFSET -2.63258 -7.23296 0.00000
				CHANNELS 3 Zrotation Yrotation Xrotation
				JOINT RightFoot
				{
					OFFSET -2.54779 -7.00000 0.00000
					CHANNELS 3 Zrotation Yrotation Xrotation
					JOINT RightToeBase
					{
						OFFSET -0.23067 -0.63376 2.12161
						CHANNELS 3 Zrotation Yrotation Xrotation
						End Site
						{
							OFFSET -0.00000 -0.00000 1.11000
						}
					}
				}
			}
		}
	}
	JOINT LowerBack
	{
		OFFSET 0 0 0
		CHANNELS 3 Zrotation Yrotation Xrotation
		JOINT Spine
		{
			OFFSET -0.02108 2.07573 -0.16981
			CHANNELS 3 Zrotation Yrotation Xrotation
			JOINT Spine1
			{
				OFFSET 0.05070 2.08439 -0.03141
				CHANNELS 3 Zrotation Yrotation Xrotation
				JOINT Neck
				{
					OFFSET 0 0 0
					CHANNELS 3 Zrotation Yrotation Xrotation
					JOINT Neck1
					{
						OFFSET -0.10731 1.60408 0.31370
						CHANNELS 3 Zrotation Yrotation Xrotation
						JOINT Head
						{
							OFFSET 0.08411 1.65679 -0.30822
							CHANNELS 3 Zrotation Yrotation Xrotation
							End Site
							{
								OFFSET 0.03911 1.69149 -0.14146
							}
						}
					}
				}
				JOINT LeftShoulder
				{
					OFFSET 0 0 0
					CHANNELS 3 Zrotation Yrotation Xrotation
					JOINT LeftArm
					{
						OFFSET 3.52315 0.73219 -0.54694
						CHANNELS 3 Zrotation Yrotation Xrotation
						JOINT LeftForeArm
						{
							OFFSET 5.32462 -0.00000 -0.00000
							CHANNELS 3 Zrotation Yrotation Xrotation
							JOINT LeftHand
							{
								OFFSET 3.48402 -0.00000 -0.00000
								CHANNELS 3 Zrotation Yrotation Xrotation
								JOINT LeftFingerBase
								{
									OFFSET 0 0 0
									CHANNELS 3 Zrotation Yrotation Xrotation
									JOINT LeftHandIndex1
									{
										OFFSET 0.57248 -0.00000 -0.00000
										CHANNELS 3 Zrotation Yrotation Xrotation
										End Site
										{
											OFFSET 0.46154 -0.00000 -0.00000
										}
									}
								}
								JOINT LThumb
								{
									OFFSET 0 0 0
									CHANNELS 3 Zrotation Yrotation Xrotation
									End Site
									{
										OFFSET 0.46859 -0.00000 0.46859
									}
								}
							}
						}
					}
				}
				JOINT RightShoulder
				{
					OFFSET 0 0 0
					CHANNELS 3 Zrotation Yrotation Xrotation
					JOINT RightArm
					{
						OFFSET -3.41766 0.93592 -0.10019
						CHANNELS 3 Zrotation Yrotation Xrotation
						JOINT RightForeArm
						{
							OFFSET -5.33589 -0.00000 -0.00000
							CHANNELS 3 Zrotation Yrotation Xrotation
							JOINT RightHand
							{
								OFFSET -3.64134 -0.00000 -0.00000
								CHANNELS 3 Zrotation Yrotation Xrotation
								JOINT RightFingerBase
								{
									OFFSET 0 0 0
									CHANNELS 3 Zrotation Yrotation Xrotation
									JOINT RightHandIndex1
									{
										OFFSET -0.73481 -0.00000 -0.00000
										CHANNELS 3 Zrotation Yrotation Xrotation
										End Site
										{
											OFFSET -0.59242 -0.00000 -0.00000
										}
									}
								}
								JOINT RThumb
								{
									OFFSET 0 0 0
									CHANNELS 3 Zrotation Yrotation Xrotation
									End Site
									{
										OFFSET -0.60147 -0.00000 0.60147
									}
								}
							}
						}
					}
				}
			}
		}
	}
}
MOTION
Frames: 8
Frame Time: .0083333
0.651 17.7816 9.8056 0 0 0 0 0 0 -21 0 0 0 0 0 0 0 0 0 0 0 0 0 0 21 0 0 0 0 0 0 0 0 0 0 0 0 0 0 0 0 0 0 0 0 0 0 -16 0 0 21 0 0 11 0 0 0 -8 0 0 0 0 0 0 0 0 0 0 0 0 0 0 0 0 0 0 0 0 8 0 0 0 0 0 0 0 0 0 0 0 0 0 0 0 0 0
0.6510 17.7816 9.8056 -179.4390 -2.8976 -174.4100 0.0000 0.0000 0.0000 -21.0127 -4.3644 -8.9982 1.4292 7.5594 21.3836 0.6972 -3.8339 -14.9422 0.2453 -3.1873 -8.8008 0.0000 0.0000 0.0000 17.8444 7.9821 -12.5331 -2.6720 -10.1441 29.4445 -1.5465 1.4591 -23.0959 -0.2940 -3.4865 9.6363 -5.7008 0.0487 -0.4979 1.5755 0.0764 -0.5965 4.8303 0.0617 -0.3458 -8.5052 0.5998 -19.4983 2.2582 0.1448 36.9600 2.2074 -1.9053 16.5791 0.0000 0.0000 0.0000 -90.0286 -2.2443 18.4992 13.9546 -22.6697 -2.8106 -0.0000 -0.0000 11.2146 13.0174 25.2560 5.6334 -7.1250 0.0000 -0.0000 -17.6890 54.9312 -4.4169 0.0000 0.0000 0.0000 85.9836 -3.9764 17.6420 -18.1659 28.3691 -4.6278 0.0000 0.0000 21.9046 -18.4854 2.1484 -0.7180 7.1250 -0.0000 -0.0000 6.2341 -27.6976 2.6365
0.6482 17.7796 9.8048 -179.4440 -2.9772 -174.4370 0.0000 0.0000 0.0000 -21.0223 -4.4324 -8.9333 1.4231 7.5438 21.3368 0.6887 -3.8367 -14.8479 0.2501 -3.2179 -8.8860 0.0000 0.0000 0.0000 17.8435 8.0463 -12.4341 -2.6650 -10.1319 29.4048 -1.5575 1.4500 -23.1823 -0.3229 -3.6524 10.1008 -5.7106 0.0293 -0.4600 1.5731 0.0477 -0.6177 4.8333 0.0491 -0.3854 -8.4606 0.6107 -19.4050 2.2568 0.1165 36.9785 2.1919 -1.9169 16.5674 0.0000 -0.0000 0.0000 -89.9879 -2.1927 18.4408 13.8989 -22.5900 -2.7892 -0.0000 -0.0000 11.2187 13.1306 25.4673 5.7279 -7.1250 0.0000 -0.0000 -17.6934 55.1553 -4.5158 0.0000 -0.0000 0.0000 86.0130 -3.9454 17.6224 -18.0923 28.2752 -4.5929 0.0000 0.0000 22.0487 -18.6543 2.4997 -0.8435 7.1250 -0.0000 -0.0000 6.0875 -27.3275 2.6272
0.6449 17.7793 9.8018 -179.3930 -3.0363 -174.5030 0.0000 0.0000 0.0000 -20.9808 -4.4851 -8.8239 1.4213 7.5393 21.3233 0.6880 -3.8291 -14.8398 0.2385 -3.1432 -8.6777 0.0000 0.0000 0.0000 17.9144 8.0068 -12.3274 -2.6578 -10.1193 29.3639 -1.5620 1.3822 -23.2349 -0.3070 -3.5621 9.8478 -5.6522 0.0098 -0.4249 1.6018 0.0197 -0.6122 4.8300 0.0351 -0.3958 -8.5351 0.6248 -19.3137 2.3399 0.1081 36.9909 2.2388 -1.9246 16.5506 0.0000 -0.0000 0.0000 -89.9989 -2.1199 18.2070 13.8639 -22.5398 -2.7757 -0.0000 -0.0000 11.3609 13.2492 25.4321 5.7738 -7.1250 0.0000 -0.0000 -17.5549 55.1446 -4.4742 0.0000 -0.0000 0.0000 86.0258 -3.9657 17.6395 -18.0838 28.2643 -4.5888 0.0000 0.0000 22.0751 -18.8423 2.6472 -0.9029 7.1250 -0.0000 -0.0000 5.9370 -27.1703 2.5837
0.6420 17.7822 9.7988 -179.3600 -3.0935 -174.5180 0.0000 0.0000 0.0000 -20.9553 -4.4678 -8.7888 1.4170 7.5284 21.2907 0.6894 -3.8879 -14.8503 0.2523 -3.2318 -8.9246 0.0000 0.0000 0.0000 17.9532 7.9340 -12.3095 -2.6546 -10.1138 29.3460 -1.5606 1.2877 -23.2501 -0.2812 -3.4106 9.4240 -5.6084 -0.0044 -0.4622 1.6259 0.0040 -0.5653 4.8303 0.0238 -0.3244 -8.5099 0.6145 -19.3055 2.2518 0.1274 36.9417 2.1992 -1.9203 16.5231 0.0000 0.0000 0.0000 -89.9585 -2.1538 18.1277 13.8353 -22.4987 -2.7648 -0.0000 -0.0000 11.3887 13.0918 25.2389 5.6630 -7.1250 0.0000 -0.0000 -17.6053 54.9291 -4.3941 0.0000 0.0000 0.0000 86.0482 -3.8645 17.6524 -18.0914 28.2740 -4.5924 0.0000 0.0000 21.9824 -18.9647 2.7486 -0.9441 7.1250 -0.0000 -0.0000 5.8390 -27.0620 2.5556
0.6408 17.7823 9.7977 -179.3920 -3.0919 -174.4920 0.0000 0.0000 0.0000 -21.0052 -4.5247 -8.7689 1.4131 7.5184 21.2605 0.6922 -3.7560 -14.8940 0.2633 -3.3011 -9.1183 0.0000 0.0000 0.0000 17.9148 8.0219 -12.2911 -2.6535 -10.1119 29.3398 -1.5680 1.2402 -23.3195 -0.2784 -3.3938 9.3770 -5.6440 -0.0001 -0.5427 1.6129 0.0158 -0.5151 4.8369 0.0258 -0.2290 -8.5302 0.5749 -19.3334 2.2617 0.0962 36.8701 2.2026 -1.9239 16.4958 0.0000 0.0000 0.0000 -89.9035 -2.2489 18.0396 13.7908 -22.4349 -2.7478 -0.0000 -0.0000 11.4341 13.0471 24.9814 5.5896 -7.1250 0.0000 -0.0000 -17.5088 54.6739 -4.2586 0.0000 0.0000 0.0000 86.0631 -3.7540 17.8319 -18.1689 28.3729 -4.6292 0.0000 0.0000 21.7012 -18.9084 2.6208 -0.8973 7.1250 -0.0000 -0.0000 5.8876 -27.1972 2.5582
0.6386 17.7823 9.7979 -179.4350 -3.0926 -174.4790 0.0000 0.0000 0.0000 -21.0681 -4.5354 -8.7569 1.4093 7.5086 21.2313 0.6906 -3.6576 -14.8859 0.2779 -3.3907 -9.3686 0.0000 0.0000 0.0000 17.8511 8.0517 -12.3014 -2.6547 -10.1138 29.3462 -1.5710 1.2651 -23.3355 -0.2846 -3.4308 9.4805 -5.6911 0.0076 -0.5232 1.6119 0.0253 -0.5129 4.8627 0.0310 -0.2389 -8.5660 0.5518 -19.3708 2.2681 0.0780 36.8818 2.2087 -1.9352 16.5128 -0.0000 0.0000 0.0000 -89.9103 -2.2532 17.9393 13.7864 -22.4285 -2.7461 -0.0000 -0.0000 11.4841 13.0380 25.1528 5.6212 -7.1250 0.0000 -0.0000 -17.6117 54.8364 -4.3555 -0.0000 0.0000 0.0000 86.0558 -3.7514 17.9708 -18.2684 28.4995 -4.6766 0.0000 0.0000 21.6090 -18.8366 2.3387 -0.7975 7.1250 -0.0000 -0.0000 5.9553 -27.4946 2.5460
0.6376 17.7826 9.7993 -179.4800 -3.1401 -174.4870 0.0000 0.0000 0.0000 -21.1144 -4.6111 -8.7225 1.4067 7.5020 21.2112 0.6847 -3.6832 -14.8172 0.2695 -3.3391 -9.2244 0.0000 0.0000 0.0000 17.8084 8.0926 -12.2709 -2.6554 -10.1151 29.3502 -1.5801 1.1972 -23.4238 -0.2895 -3.4602 9.5626 -5.7651 -0.0034 -0.4231 1.6298 0.0041 -0.5511 4.9233 0.0246 -0.3319 -8.6104 0.5519 -19.3025 2.2671 0.0890 36.8427 2.2174 -1.9358 16.4751 0.0000 -0.0000 0.0000 -89.9171 -2.2026 17.8554 13.7618 -22.3931 -2.7367 -0.0000 -0.0000 11.4527 12.9813 25.5498 5.6779 -7.1250 0.0000 -0.0000 -17.8892 55.2051 -4.5901 0.0000 -0.0000 0.0000 86.0179 -3.8024 18.0305 -18.2913 28.5286 -4.6875 0.0000 0.0000 21.7539 -18.7568 2.1249 -0.7214 7.1250 -0.0000 -0.0000 6.0267 -27.7199 2.5447
